<?xml version="1.0" encoding="UTF-8" standalone="no"?>
<!-- Created with Inkscape (http://www.inkscape.org/) -->

<svg
   viewBox="0 0 1756.0656 156.98627"
   version="1.1"
   id="svg5"
   xmlSpace="preserve"
   xmlnsInkscape="http://www.inkscape.org/namespaces/inkscape"
   xmlnsSodipodi="http://sodipodi.sourceforge.net/DTD/sodipodi-0.dtd"
   xmlnsXlink="http://www.w3.org/1999/xlink"
   xmlns="http://www.w3.org/2000/svg"
   xmlnsSvg="http://www.w3.org/2000/svg"><sodipodiNamedview
     id="namedview7"
     pagecolor="#ffffff"
     bordercolor="#000000"
     borderopacity="0.25"
     inkscapeShowpageshadow="2"
     inkscapePageopacity="0.0"
     inkscapePagecheckerboard="0"
     inkscapeDeskcolor="#d1d1d1"
     inkscapeDocument-units="mm"
     showgrid="false" /><defs
     id="defs2" /><g
     inkscapeLabel="Layer 1"
     inkscapeGroupmode="layer"
     id="layer1"
     transform="translate(919.05904,385.1772)"><g
       id="g83"
       transform="matrix(0.26458333,0,0,0.26458333,-921.52847,-399.99388)"
       style="fill:#4d4d4d"><image
         width="6666.6665"
         height="704"
         preserveAspectRatio="none"
         style="display:none;fill:#4d4d4d;image-rendering:optimizeQuality"
         id="image4493"
         x="0"
         y="0" /><path
         style="fill:#4d4d4d;fill-opacity:1;stroke-width:1.33333"
         d="M 146.03305,645.66667 C 143.15424,634.22664 9.3333331,58.104712 9.3333331,57.150947 9.3333331,56.516441 50.31556,56 100.66666,56 150.9,56 192,56.2881 192,56.640224 c 0,1.064936 80.03997,342.541766 80.78514,344.656006 0.39245,1.11346 6.79173,-9.84926 14.78787,-25.33334 7.75281,-15.01292 34.63977,-66.89622 59.74877,-115.29622 25.10901,-48.4 59.06448,-114.25 75.45658,-146.33334 L 452.58219,56 h 91.77298 91.77299 L 613.73074,99.727603 C 601.41216,123.77779 532.84669,257.27779 461.36304,396.39427 L 331.39277,649.33333 h -92.21851 -92.2185 z m 584.18343,0.66666 c 0.85616,-5.00325 64.45017,-458.86334 64.45017,-459.97037 0,-0.56629 -31.8,-1.02963 -70.66667,-1.02963 -66.72229,0 -70.66666,-0.13173 -70.66666,-2.36048 0,-2.39873 15.2801,-114.702578 16.68638,-122.639517 L 670.78749,56 h 225.2729 c 177.02891,0 225.27291,0.350224 225.27291,1.635353 0,1.951463 -15.7332,117.125767 -16.8504,123.353137 l -0.7754,4.32182 -71.4443,0.34485 L 960.81895,186 928.46028,416 c -17.79726,126.5 -32.38153,230.75 -32.40948,231.66667 -0.0401,1.31497 -17.5965,1.66666 -83.19926,1.66666 H 729.7031 Z m 344.45012,2.18626 c 0,-0.44756 68.2028,-133.94756 151.5617,-296.66667 L 1377.7901,56 h 92.4383 c 50.841,0 92.4382,0.284019 92.4382,0.631153 0,0.8797 137.2552,587.495937 138.1332,590.368847 0.6768,2.21425 -8.5114,2.33333 -180.0433,2.33333 -103.6155,0 -180.7565,-0.50233 -180.7565,-1.17705 0,-0.64737 3.9,-29.51771 8.6666,-64.15628 4.7667,-34.63857 8.6667,-63.20891 8.6667,-63.48961 0,-0.28072 29.1651,-0.51039 64.8112,-0.51039 h 64.8112 l -0.7209,-3 c -0.3966,-1.65 -11.6606,-50.1 -25.0314,-107.66667 -13.3706,-57.56666 -24.6822,-105.10776 -25.137,-105.64686 -0.4548,-0.53912 -12.3175,21.36088 -26.3615,48.66666 C 1395.6608,379.65891 1368.224,432.6 1348.7342,470 c -19.4898,37.4 -48.1781,93.04031 -63.7518,123.64511 l -28.3158,55.64512 -91,0.0216 c -50.05,0.0118 -91,-0.34468 -91,-0.79224 z m 979.3917,-2.85292 c 1.2335,-6.86875 81.9416,-585.72049 81.9416,-587.697907 0,-1.727427 24.3939,-1.96621 199,-1.947935 220.0462,0.02303 208.5826,-0.424847 221.7802,8.664743 12.6313,8.699561 19.7869,20.886574 21.909,37.314429 1.1079,8.57726 -1.5466,28.88324 -32.769,250.66667 -18.686,132.73333 -34.6351,243.43333 -35.4426,246 -7.5534,24.01293 -30.0658,44.9566 -52.9986,49.30572 -4.6796,0.88746 -76.219,1.36094 -205.6276,1.36094 H 2053.3999 Z M 2379.519,359 c 12.5471,-88.55 23.2088,-163.85 23.6928,-167.33333 l 0.88,-6.33334 -59.7127,0.001 -59.7125,0.001 -23.2352,164.26179 c -12.7793,90.34398 -23.4993,165.64332 -23.8221,167.33185 l -0.587,3.07007 h 59.8419 59.842 l 22.8128,-161 z m 187.8727,286.66667 c 1.2418,-6.91571 81.9416,-585.72761 81.9416,-587.718863 0,-1.756883 23.6768,-1.948259 202.3333,-1.635428 232.9591,0.407913 209.0828,-1.107308 224.4553,14.244284 6.649,6.640004 9.5179,10.724258 11.7843,16.77667 5.7924,15.468157 5.6531,17.118837 -11.8164,139.999997 -8.8617,62.33334 -16.7804,116.33334 -17.5972,120 -4.0196,18.0442 -20.7773,39.19674 -37.3003,47.08243 -10.4317,4.97859 -21.4332,6.8942 -39.6702,6.90751 l -13.8112,0.0107 0.894,3.66667 c 0.4917,2.01667 15.5568,57.45965 33.4778,123.20664 17.9212,65.74699 32.5839,119.89699 32.5839,120.33333 0,0.43635 -33.2051,0.79336 -73.7889,0.79336 h -73.789 l -1.465,-5 c -2.5998,-8.87321 -92.2904,-340.22848 -92.2904,-340.96024 0,-0.38886 24,-0.70702 53.3333,-0.70702 29.3333,0 53.3333,-0.48967 53.3333,-1.08815 0,-0.59849 3.6,-26.20883 8,-56.91185 4.4,-30.70303 8,-56.61336 8,-57.57852 0,-1.42446 -11.1073,-1.7545 -59,-1.75314 l -59,0.001 -31.7592,226.33165 c -17.4676,124.48241 -32.0966,228.88165 -32.5089,231.99832 l -0.7496,5.66667 h -83.1245 -83.1244 l 0.6584,-3.66667 z m 572.7838,2.22985 c -13.908,-2.73328 -28.6805,-14.28268 -34.6629,-27.09997 -6.1485,-13.1735 -6.244,-18.55758 -0.9753,-55.0211 2.6312,-18.20982 17.9674,-127.00878 34.0805,-241.77545 16.1132,-114.76667 30.2591,-212.26667 31.4352,-216.66667 6.3109,-23.607813 29.9504,-45.580122 53.7956,-50.00161 4.548,-0.843325 70.0721,-1.324081 178.6666,-1.310892 189.77,0.02305 181.1599,-0.360989 194.2648,8.664743 12.6314,8.699561 19.787,20.886574 21.9091,37.314429 1.1079,8.57726 -1.5467,28.88324 -32.7691,250.66667 -18.686,132.73333 -34.635,243.43333 -35.4425,246 -7.5535,24.01293 -30.0659,44.9566 -52.9987,49.30572 -8.8716,1.68245 -348.7234,1.61029 -357.3033,-0.0759 z M 3419.519,359 c 12.547,-88.55 23.2088,-163.85 23.6928,-167.33333 l 0.88,-6.33334 -59.7127,0.001 -59.7125,0.001 -23.2352,164.26179 c -12.7793,90.34398 -23.4993,165.64332 -23.8221,167.33185 l -0.587,3.07007 h 59.8419 59.842 l 22.8128,-161 z m 187.8726,286.66667 c 1.2335,-6.86875 81.9416,-585.72049 81.9416,-587.697907 0,-1.727427 24.3939,-1.96621 199,-1.947935 220.0462,0.02303 208.5826,-0.424847 221.7802,8.664743 12.6337,8.701145 19.7902,20.89187 21.9054,37.314429 1.1036,8.56783 -1.8552,31.25944 -36.0753,276.66667 -20.5027,147.03333 -37.2775,268.08333 -37.2772,269 1e-4,1.31554 -17.5484,1.66666 -83.2997,1.66666 h -83.3 l 0.6618,-3.66666 c 1.8306,-10.1398 64.5074,-459.54192 64.142,-459.9073 -0.2344,-0.23432 -27.0761,-0.42528 -59.6482,-0.42436 l -59.2223,10e-4 -31.7592,226.33165 c -17.4676,124.48241 -32.0967,228.88165 -32.5089,231.99832 l -0.7496,5.66667 h -83.1246 -83.1244 l 0.6584,-3.66667 z m 513.208,0.66666 c 0.3578,-1.65 19.0535,-135 41.5462,-296.33333 22.4925,-161.33333 41.0129,-293.485072 41.1565,-293.670531 0.1435,-0.185458 101.6292,-0.185458 225.5239,0 l 225.263,0.337198 L 4618.7175,121 l -35.3717,64.33333 h -116.03 -116.03 l -7.7759,54.33334 c -4.2768,29.88333 -8.0841,56.28333 -8.4609,58.66666 l -0.6851,4.33334 h 116.118 116.118 l -0.6432,3.66666 c -1.0831,6.17331 -12.6235,91.44288 -12.6235,93.27146 0,1.38061 -22.6146,1.78014 -116.292,2.05456 L 4320.7494,402 l -7.6108,53.33333 c -4.186,29.33334 -7.991,55.88063 -8.4555,58.99399 l -0.8448,5.66065 142.5304,0.33935 142.5305,0.33935 L 4553.5219,585 4518.1447,649.33333 H 4319.047 4119.9491 Z M 4679.9205,649 c -0.044,-0.18333 -8.0353,-29.13333 -17.7594,-64.33333 l -17.6801,-64 142.1979,-0.33931 142.1979,-0.33931 8.2732,-58.32736 c 4.5503,-32.08005 8.2531,-58.76184 8.2283,-59.29286 -0.025,-0.53103 -53.5951,-1.13103 -119.0451,-1.33334 l -119,-0.36782 -7.6623,-3.09414 c -10.6954,-4.31902 -21.2313,-14.33129 -26.6389,-25.31508 -3.9853,-8.09492 -4.3584,-9.91453 -4.2836,-20.8956 0.089,-13.08118 31.1239,-233.38411 34.5737,-245.42422 1.0604,-3.70097 4.421,-10.586022 7.4678,-15.30011 11.5797,-17.915989 28.2532,-30.004555 45.7882,-33.197089 C 4762.0137,56.450769 4826.3941,56 4962.3052,56 h 197.8155 l -0.7394,4.333333 c -1.301,7.626446 -16.7148,121.159057 -16.7148,123.116417 0,1.61082 -20.6594,1.88358 -142.6666,1.88358 -82.0795,0 -142.6667,0.50214 -142.6667,1.18239 0,0.65031 -3.6,26.1686 -8,56.70733 -4.4,30.53872 -8,56.38818 -8,57.44323 0,1.65169 16.5377,1.97031 119,2.29267 l 119,0.37438 7.5668,3.54722 c 16.1099,7.55198 26.6729,22.31786 29.2455,40.88137 1.2248,8.83848 0.1306,17.92496 -15.4526,128.26231 -11.9002,84.26341 -17.5916,120.96084 -19.5974,126.36286 -8.3863,22.58538 -29.6606,41.53758 -51.0694,45.4952 -5.396,0.99751 -61.3236,1.45104 -178.9378,1.45104 -94.0986,0 -171.1242,-0.15 -171.1678,-0.33333 z m 869.881,-12.36968 c -1.1784,-3.07071 -0.1366,-9.31235 8.674,-51.96365 4.393,-21.26667 14.0121,-68.66667 21.3756,-105.33334 7.3636,-36.66666 13.9897,-69.36666 14.7248,-72.66666 0.735,-3.3 1.7113,-8.1 2.1694,-10.66667 0.7259,-4.06676 2.317,-5.64904 12.3771,-12.30855 15.6371,-10.3513 67.22,-45.42702 85.5441,-58.16888 4.7667,-3.31454 10.7667,-7.40462 13.3334,-9.08906 2.5666,-1.68444 5.2666,-3.52107 6,-4.0814 1.575,-1.20346 16.9942,-11.73207 32.009,-21.85642 5.8716,-3.95921 12.9216,-8.91162 15.6667,-11.00538 l 4.9909,-3.80682 v -21.03242 c 0,-17.94884 -0.3092,-21.15108 -2.109,-21.84175 -1.16,-0.44513 -60.8246,-0.80932 -132.588,-0.80932 -88.6864,0 -130.7527,-0.44305 -131.3338,-1.38324 -0.4702,-0.76079 -2.8405,-2.71079 -5.2673,-4.33333 -2.4268,-1.62256 -10.1724,-6.8501 -17.2127,-11.61676 L 5465.3555,206 l 0.1968,-32 0.1968,-32 -137.7766,-0.3396 c -125.8788,-0.31027 -137.9865,-0.5296 -140.2078,-2.53997 -1.3374,-1.21022 -2.4315,-3.1739 -2.4315,-4.36374 0,-3.32722 3.8693,-8.09002 6.5724,-8.09002 1.3317,0 9.8476,-2.33146 18.9244,-5.18101 9.0768,-2.84956 24.6032,-7.68631 34.5032,-10.74833 9.9,-3.06202 25.5,-7.90249 34.6667,-10.756594 115.8336,-36.065547 110.6353,-34.576699 117.506,-33.655143 3.4965,0.468986 17.5468,6.830428 36.7374,16.633343 17.0916,8.730652 31.6788,15.501111 32.4162,15.045465 0.7372,-0.455645 1.3496,-4.243036 1.3608,-8.416424 0.013,-4.173388 0.5886,-8.487977 1.2832,-9.587977 1.0602,-1.67926 6.9593,-2.063547 36.7842,-2.396251 42.669,-0.475981 41.1063,-0.9522 42.4756,12.944444 0.509,5.164768 1.4764,9.731107 2.15,10.147427 0.6736,0.41632 16.754,-7.069887 35.7342,-16.636008 18.9802,-9.56612 35.7146,-17.392945 37.1877,-17.392945 1.4729,0 8.0076,1.701554 14.5215,3.781233 6.5137,2.079679 16.3432,5.075808 21.8432,6.658065 5.5,1.582259 22.1516,6.472451 37.0034,10.867095 14.8519,4.394644 29.712,8.672312 33.0227,9.505928 3.3105,0.833616 6.3444,2.041869 6.7419,2.685002 0.3974,0.64314 2.1709,1.16934 3.9409,1.16934 1.77,0 6.3845,1.46591 10.2547,3.25758 10.7705,4.98635 23.0861,9.73114 27.9693,10.7757 2.4201,0.51773 5.0004,1.37784 5.7337,1.91137 1.679,1.22151 18.0496,7.67992 26,10.25729 11.8899,3.85446 13.3334,4.68735 13.3334,7.69316 0,1.59769 -0.72,3.6249 -1.6,4.5049 -1.2234,1.22339 -33.3926,1.6 -136.6667,1.6 h -135.0667 v 20 20 h 368.6667 368.6666 V 162.66667 144 h -137.7933 c -131.7987,0 -137.8893,-0.10613 -140,-2.43832 -1.2137,-1.34108 -2.2067,-3.64808 -2.2067,-5.12668 0,-2.97821 3.877,-7.10167 6.677,-7.10167 0.9902,0 3.643,-0.59924 5.895,-1.33166 2.2522,-0.73242 12.1947,-3.78853 22.0947,-6.79136 9.9,-3.00283 23.4,-7.15872 30,-9.23531 45.6579,-14.365559 124.3093,-38.645063 134.8495,-41.627687 10.6716,-3.019852 8.5288,-3.538181 27.1505,6.567423 23.9867,13.016977 49.666,25.751934 51.9275,25.751934 3.2128,0 4.0725,-2.5464 4.0725,-12.062142 0,-6.390563 0.4779,-8.099793 2.5791,-9.224283 C 6294.8325,80.530943 6309.0794,80 6330.2822,80 c 40.9698,0 39.5844,-0.435779 40.8243,12.841864 0.4607,4.932987 1.3609,9.492446 2.0007,10.132136 0.6618,0.66188 16.0365,-6.335828 35.6784,-16.238795 18.9834,-9.571029 35.8442,-17.401872 37.4686,-17.401872 1.6244,0 4.3318,0.543939 6.0162,1.208752 4.1562,1.640299 28.0168,8.946338 37.0628,11.348511 4.0333,1.071056 11.5333,3.232472 16.6666,4.803145 5.1334,1.570674 12.3334,3.688083 16,4.705354 6.6306,1.839565 31.2738,10.367115 44,15.225855 3.6667,1.39988 12.6667,4.76896 20,7.48684 7.3334,2.71788 16.9334,6.2979 21.3334,7.9556 4.4,1.65771 11,4.0652 14.6666,5.35 13.5623,4.75222 23.6648,9.29642 24.3058,10.93292 0.3625,0.92601 -0.081,2.57601 -0.9866,3.66666 C 6643.8822,143.74825 6626.5134,144 6508.5033,144 h -135.1701 v 29.86269 29.86268 l -9.6667,8.38428 c -5.3167,4.61136 -12.6825,11.27026 -16.3687,14.79754 l -6.7021,6.41324 -133.9645,0.33978 -133.9647,0.33979 -0.3708,19.14056 -0.3708,19.14056 4.9528,4.67105 c 2.724,2.56908 13.6908,10.58135 24.3708,17.80504 10.6799,7.2237 30.618,20.80847 44.3069,30.18839 13.6888,9.37992 35.8888,24.52455 49.3334,33.65472 13.4444,9.13019 29.8142,20.26115 36.3774,24.73547 9.2464,6.30356 12.1348,9.02022 12.8288,12.06634 0.8856,3.88619 2.9042,13.65452 5.4964,26.59787 0.7343,3.66667 1.8279,9.06667 2.4302,12 0.6022,2.93333 1.7532,8.63333 2.5576,12.66667 6.4145,32.15997 21.751,108.14836 28.7941,142.66666 4.7132,23.1 8.5824,43.33858 8.598,44.9746 0.019,1.99078 -0.9637,3.21814 -2.9715,3.71095 -1.65,0.405 -15.2838,0.56643 -30.2973,0.35873 L 6231.4052,638 l -1.0299,-6 c -1.016,-5.91973 -2.8488,-19.08043 -5.0132,-36 -1.1687,-9.13577 -4.5317,-33.40335 -6.652,-48 -0.6924,-4.76667 -1.8769,-13.76667 -2.6324,-20 -0.7555,-6.23333 -1.6887,-13.43333 -2.074,-16 -0.7475,-4.97885 -2.3513,-16.68675 -4.6577,-34 -0.7815,-5.86667 -2.0211,-15.16667 -2.7547,-20.66667 -0.7335,-5.5 -1.9289,-14.72712 -2.6565,-20.5047 -0.7275,-5.77759 -1.6519,-11.03722 -2.054,-11.68806 C 6200.5802,423.03635 6165.1232,400 6163.1849,400 c -0.2984,0 -5.4871,-3.20429 -11.5304,-7.12067 -9.4828,-6.14518 -16.9723,-10.71005 -26.6,-16.21266 -1.2831,-0.73334 -9.2305,-5.68334 -17.6612,-11 C 6098.9628,360.35 6091.7928,356 6091.4602,356 c -0.3326,0 -6.0412,-3.6 -12.6857,-8 -6.6445,-4.4 -12.6531,-8 -13.3523,-8 -0.6992,0 -2.2168,-1.35 -3.3725,-3 -1.6899,-2.41275 -3.3723,-3 -8.5943,-3 -6.0041,0 -7.0504,0.52709 -13.8945,7 -4.0708,3.85 -7.9787,7 -8.6841,7 -0.7055,0 -2.0915,1.95 -3.0799,4.33333 -1.3963,3.36692 -1.9457,19.71123 -2.4637,73.28674 -0.6178,63.89797 -0.8412,69.12788 -3.0476,71.33333 -2.2434,2.24235 -8.2047,2.37993 -103.1179,2.37993 h -100.7368 l -2.5489,-3.1477 c -2.4349,-3.00714 -2.5488,-6.18051 -2.5488,-71.054 v -67.90628 l -2.9819,-4.03315 c -1.64,-2.21824 -7.13,-6.76597 -12.2,-10.10608 -8.8972,-5.86155 -9.4737,-6.04288 -16.5646,-5.20949 -4.0406,0.47489 -8.0006,1.69052 -8.8,2.7014 -1.2063,1.52541 -18.6084,12.6752 -37.7376,24.17896 -4.1275,2.48214 -23.7607,14.54092 -61.7159,37.90601 -9.9,6.09441 -21.3,13.09943 -25.3333,15.56672 -7.9139,4.84109 -10.5119,8.93271 -10.6066,16.70465 -0.033,2.71391 -0.6086,7.81391 -1.279,11.33334 -0.6704,3.51942 -1.8894,11.79896 -2.7086,18.39896 -2.6521,21.36461 -4.2345,33.18128 -5.4458,40.66666 -0.6527,4.03334 -1.8176,12.13334 -2.5887,18 -3.3549,25.52432 -6.8311,51.40754 -8.1476,60.66667 -0.782,5.5 -2.7633,19.9 -4.4029,32 l -2.9812,22 -29.6184,0.35893 c -25.8659,0.31344 -29.7202,0.0944 -30.4196,-1.72861 z m 390.848,-165.21648 c 34.6729,-17.02371 38.7326,-64.51355 7.387,-86.41248 -33.1328,-23.14757 -78.8026,0.55864 -78.9142,40.96261 -0.057,20.83726 11.9048,38.51455 31.6684,46.79794 6.7421,2.8258 9.6033,3.24848 19.8758,2.93621 10.1334,-0.30804 13.2419,-0.97451 19.983,-4.28428 z m -33.983,-16.78625 c -7.8357,-3.64767 -11.555,-7.23508 -15.4653,-14.9166 -11.7489,-23.08071 10.3851,-50.46764 35.4319,-43.84066 8.738,2.31195 15.3638,7.17895 19.5893,14.38922 3.1152,5.31569 3.7033,7.83458 3.7033,15.86098 0,8.27435 -0.531,10.40071 -3.9981,16.00868 -8.2357,13.32087 -25.6117,18.85236 -39.2611,12.49838 z"
         id="path4495"
         inkscapeConnector-curvature="0" /></g></g></svg>
